<?xml version="1.0" encoding="utf-8"?>
<svg height="576" version="1.1" width="1024" xmlns="http://www.w3.org/2000/svg" xmlns:xlink="http://www.w3.org/1999/xlink">
  <path d="M302,0 l0,600 c0,70,0,193,202,193 l98,7 l-600,0 " fill="none" stroke="rgba(255,0,0,1.0)" stroke-dasharray="none" stroke-linecap="inherit" stroke-linejoin="inherit" stroke-width="30" transform="matrix(0.04,0.0,0.0,-0.04,30,116)"/>
  <path d="M404,-1 c202,0,197,129,197,200 l0,400 c0,71,0,200,-202,200 l-201,0 c-203,0,-198,-130,-198,-200 l0,-400 c0,-71,0,-200,202,-200 Z M404,-1 " fill="none" stroke="rgba(255,0,0,1.0)" stroke-dasharray="none" stroke-linecap="inherit" stroke-linejoin="inherit" stroke-width="30" transform="matrix(0.04,0.0,0.0,-0.04,63.32,116.0)"/>
  <path d="M601,599 c0,71,0,200,-202,200 c-66,0,-398,0,-398,0 l0,-800 l400,0 c71,0,200,-2,200,200 Z M601,599 " fill="none" stroke="rgba(255,0,0,1.0)" stroke-dasharray="none" stroke-linecap="inherit" stroke-linejoin="inherit" stroke-width="30" transform="matrix(0.04,0.0,0.0,-0.04,96.64,116.0)"/>
  <path d="M404,-1 c202,0,197,129,197,200 l0,400 c0,71,0,200,-202,200 l-201,0 c-203,0,-198,-130,-198,-200 l0,-400 c0,-71,0,-200,202,-200 Z M404,-1 " fill="none" stroke="rgba(255,0,0,1.0)" stroke-dasharray="none" stroke-linecap="inherit" stroke-linejoin="inherit" stroke-width="30" transform="matrix(0.04,0.0,0.0,-0.04,129.96,116.0)"/>
  <path d="" fill="none" stroke="rgba(255,0,0,1.0)" stroke-dasharray="none" stroke-linecap="inherit" stroke-linejoin="inherit" stroke-width="30" transform="matrix(0.04,0.0,0.0,-0.04,163.28,116.0)"/>
  <path d="M0,99 c0,71,-2,208,200,208 l201,0 c203,0,200,129,200,200 l0,96 c0,71,0,200,-202,200 l-201,0 c-203,0,-198,-130,-198,-200 l0,-600 " fill="none" stroke="rgba(255,0,0,1.0)" stroke-dasharray="none" stroke-linecap="inherit" stroke-linejoin="inherit" stroke-width="30" transform="matrix(0.04,0.0,0.0,-0.04,179.32,116.0)"/>
  <path d="M601,-4 l0,102 c0,203,-129,198,-200,198 l-201,0 l-200,0 l200,0 M401,296 c203,0,200,129,200,200 l0,100 c0,71,0,200,-202,200 l-201,0 c-203,0,-198,-130,-198,-200 l0,-600 " fill="none" stroke="rgba(255,0,0,1.0)" stroke-dasharray="none" stroke-linecap="inherit" stroke-linejoin="inherit" stroke-width="30" transform="matrix(0.04,0.0,0.0,-0.04,212.64,116.0)"/>
  <path d="M404,-1 c202,0,197,129,197,200 l0,400 c0,71,0,200,-202,200 l-201,0 c-203,0,-198,-130,-198,-200 l0,-400 c0,-71,0,-200,202,-200 Z M404,-1 " fill="none" stroke="rgba(255,0,0,1.0)" stroke-dasharray="none" stroke-linecap="inherit" stroke-linejoin="inherit" stroke-width="30" transform="matrix(0.04,0.0,0.0,-0.04,245.96,116.0)"/>
  <path d="M596,799 l-600,0 l100,-6 c70,-4,200,10,200,-193 l0,-402 c0,-71,2,-199,-200,-199 l-100,0 " fill="none" stroke="rgba(255,0,0,1.0)" stroke-dasharray="none" stroke-linecap="inherit" stroke-linejoin="inherit" stroke-width="30" transform="matrix(0.04,0.0,0.0,-0.04,279.28,116.0)"/>
  <path d="M604,602 c0,203,-132,198,-202,198 l-199,0 c-203,0,-198,-132,-198,-202 c0,-171,92,-193,164,-196 c13,0,225,-2,236,-2 c-11,0,-224,-2,-237,-3 c-71,-4,-162,-28,-162,-199 c0,-203,133,-198,202,-198 l197,0 M605,196 c0,-70,5,-196,-198,-196 " fill="none" stroke="rgba(255,0,0,1.0)" stroke-dasharray="none" stroke-linecap="inherit" stroke-linejoin="inherit" stroke-width="30" transform="matrix(0.04,0.0,0.0,-0.04,312.6,116.0)"/>
  <path d="M302,0 l0,600 c0,70,0,193,202,193 l98,7 l-600,0 " fill="none" stroke="rgba(255,0,0,1.0)" stroke-dasharray="none" stroke-linecap="inherit" stroke-linejoin="inherit" stroke-width="30" transform="matrix(0.04,0.0,0.0,-0.04,345.92,116.0)"/>
  <path d="M404,-1 c202,0,197,129,197,200 l0,400 c0,71,0,200,-202,200 l-201,0 c-203,0,-198,-130,-198,-200 l0,-400 c0,-71,0,-200,202,-200 Z M404,-1 " fill="none" stroke="rgba(255,0,0,1.0)" stroke-dasharray="none" stroke-linecap="inherit" stroke-linejoin="inherit" stroke-width="30" transform="matrix(0.04,0.0,0.0,-0.04,379.24,116.0)"/>
  <path d="" fill="none" stroke="rgba(255,0,0,1.0)" stroke-dasharray="none" stroke-linecap="inherit" stroke-linejoin="inherit" stroke-width="30" transform="matrix(0.04,0.0,0.0,-0.04,412.56,116.0)"/>
  <path d="M300,928 l300,200 M604,602 c0,203,-132,198,-202,198 l-199,0 c-203,0,-198,-132,-198,-202 c0,-171,92,-193,164,-196 c13,0,225,-2,236,-2 c-11,0,-224,-2,-237,-3 c-71,-4,-162,-28,-162,-199 c0,-203,133,-198,202,-198 l197,0 M605,196 c0,-70,5,-196,-198,-196 " fill="none" stroke="rgba(255,0,0,1.0)" stroke-dasharray="none" stroke-linecap="inherit" stroke-linejoin="inherit" stroke-width="30" transform="matrix(0.04,0.0,0.0,-0.04,428.6,116.0)"/>
  <path d="" fill="none" stroke="rgba(255,0,0,1.0)" stroke-dasharray="none" stroke-linecap="inherit" stroke-linejoin="inherit" stroke-width="30" transform="matrix(0.04,0.0,0.0,-0.04,461.92,116.0)"/>
  <path d="M600,346 l-400,0 c-202,0,-190,-127,-193,-196 l-7,-154 l0,604 c-1,69,-5,196,198,196 l203,0 c202,0,200,-130,199,-200 c0,-150,0,-600,0,-600 " fill="none" stroke="rgba(255,0,0,1.0)" stroke-dasharray="none" stroke-linecap="inherit" stroke-linejoin="inherit" stroke-width="30" transform="matrix(0.04,0.0,0.0,-0.04,477.96,116.0)"/>
  <path d="M404,-1 c202,0,197,129,197,200 l0,400 c0,71,0,200,-202,200 l-201,0 c-203,0,-198,-130,-198,-200 l0,-400 c0,-71,0,-200,202,-200 Z M404,-1 " fill="none" stroke="rgba(255,0,0,1.0)" stroke-dasharray="none" stroke-linecap="inherit" stroke-linejoin="inherit" stroke-width="30" transform="matrix(0.04,0.0,0.0,-0.04,511.28,116.0)"/>
  <path d="" fill="none" stroke="rgba(255,0,0,1.0)" stroke-dasharray="none" stroke-linecap="inherit" stroke-linejoin="inherit" stroke-width="30" transform="matrix(0.04,0.0,0.0,-0.04,544.6,116.0)"/>
  <path d="M601,-1 l0,800 l-100,0 c-71,0,-188,2,-193,-200 l-7,-300 l-7,300 c-5,202,-123,200,-193,200 l-100,0 l0,-800 " fill="none" stroke="rgba(255,0,0,1.0)" stroke-dasharray="none" stroke-linecap="inherit" stroke-linejoin="inherit" stroke-width="30" transform="matrix(0.04,0.0,0.0,-0.04,560.64,116.0)"/>
  <path d="M604,602 c0,203,-132,198,-202,198 l-199,0 c-203,0,-198,-132,-198,-202 c0,-171,92,-193,164,-196 c13,0,225,-2,236,-2 c-11,0,-224,-2,-237,-3 c-71,-4,-162,-28,-162,-199 c0,-203,133,-198,202,-198 l197,0 M605,196 c0,-70,5,-196,-198,-196 " fill="none" stroke="rgba(255,0,0,1.0)" stroke-dasharray="none" stroke-linecap="inherit" stroke-linejoin="inherit" stroke-width="30" transform="matrix(0.04,0.0,0.0,-0.04,593.96,116.0)"/>
  <path d="M601,604 c0,71,0,200,-202,200 l-201,0 c-203,0,-198,-130,-198,-200 c0,-202,129,-200,200,-200 l201,0 c71,0,200,5,200,-198 c0,-70,3,-202,-200,-202 l-201,0 c-71,0,-200,-2,-200,200 " fill="none" stroke="rgba(255,0,0,1.0)" stroke-dasharray="none" stroke-linecap="inherit" stroke-linejoin="inherit" stroke-width="30" transform="matrix(0.04,0.0,0.0,-0.04,627.28,116.0)"/>
  <path d="M601,-1 l0,800 l-100,0 c-71,0,-188,2,-193,-200 l-7,-300 l-7,300 c-5,202,-123,200,-193,200 l-100,0 l0,-800 " fill="none" stroke="rgba(255,0,0,1.0)" stroke-dasharray="none" stroke-linecap="inherit" stroke-linejoin="inherit" stroke-width="30" transform="matrix(0.04,0.0,0.0,-0.04,660.6,116.0)"/>
  <path d="M404,-1 c202,0,197,129,197,200 l0,400 c0,71,0,200,-202,200 l-201,0 c-203,0,-198,-130,-198,-200 l0,-400 c0,-71,0,-200,202,-200 Z M404,-1 " fill="none" stroke="rgba(255,0,0,1.0)" stroke-dasharray="none" stroke-linecap="inherit" stroke-linejoin="inherit" stroke-width="30" transform="matrix(0.04,0.0,0.0,-0.04,693.92,116.0)"/>
  <path d="" fill="none" stroke="rgba(255,0,0,1.0)" stroke-dasharray="none" stroke-linecap="inherit" stroke-linejoin="inherit" stroke-width="30" transform="matrix(0.04,0.0,0.0,-0.04,727.24,116.0)"/>
  <path d="" fill="none" stroke="rgba(255,0,0,1.0)" stroke-dasharray="none" stroke-linecap="inherit" stroke-linejoin="inherit" stroke-width="30" transform="matrix(0.04,0.0,0.0,-0.04,30.0,176.0)"/>
  <path d="" fill="none" stroke="rgba(255,0,0,1.0)" stroke-dasharray="none" stroke-linecap="inherit" stroke-linejoin="inherit" stroke-width="30" transform="matrix(0.04,0.0,0.0,-0.04,46.04,176.0)"/>
  <path d="" fill="none" stroke="rgba(255,0,0,1.0)" stroke-dasharray="none" stroke-linecap="inherit" stroke-linejoin="inherit" stroke-width="30" transform="matrix(0.04,0.0,0.0,-0.04,62.08,176.0)"/>
  <path d="M302,0 l0,600 c0,70,0,193,202,193 l98,7 l-600,0 " fill="none" stroke="rgba(255,0,0,1.0)" stroke-dasharray="none" stroke-linecap="inherit" stroke-linejoin="inherit" stroke-width="30" transform="matrix(0.04,0.0,0.0,-0.04,78.12,176.0)"/>
  <path d="M604,602 c0,203,-132,198,-202,198 l-199,0 c-203,0,-198,-132,-198,-202 c0,-171,92,-193,164,-196 c13,0,225,-2,236,-2 c-11,0,-224,-2,-237,-3 c-71,-4,-162,-28,-162,-199 c0,-203,133,-198,202,-198 l197,0 M605,196 c0,-70,5,-196,-198,-196 " fill="none" stroke="rgba(255,0,0,1.0)" stroke-dasharray="none" stroke-linecap="inherit" stroke-linejoin="inherit" stroke-width="30" transform="matrix(0.04,0.0,0.0,-0.04,111.44,176.0)"/>
  <path d="M601,-1 l0,800 l-100,0 c-71,0,-188,2,-193,-200 l-7,-300 l-7,300 c-5,202,-123,200,-193,200 l-100,0 l0,-800 " fill="none" stroke="rgba(255,0,0,1.0)" stroke-dasharray="none" stroke-linecap="inherit" stroke-linejoin="inherit" stroke-width="30" transform="matrix(0.04,0.0,0.0,-0.04,144.76,176.0)"/>
  <path d="M0,99 c0,71,-2,208,200,208 l201,0 c203,0,200,129,200,200 l0,96 c0,71,0,200,-202,200 l-201,0 c-203,0,-198,-130,-198,-200 l0,-600 " fill="none" stroke="rgba(255,0,0,1.0)" stroke-dasharray="none" stroke-linecap="inherit" stroke-linejoin="inherit" stroke-width="30" transform="matrix(0.04,0.0,0.0,-0.04,178.08,176.0)"/>
  <path d="M404,-1 c202,0,197,129,197,200 l0,400 c0,71,0,200,-202,200 l-201,0 c-203,0,-198,-130,-198,-200 l0,-400 c0,-71,0,-200,202,-200 Z M404,-1 " fill="none" stroke="rgba(255,0,0,1.0)" stroke-dasharray="none" stroke-linecap="inherit" stroke-linejoin="inherit" stroke-width="30" transform="matrix(0.04,0.0,0.0,-0.04,211.4,176.0)"/>
  <path d="" fill="none" stroke="rgba(255,0,0,1.0)" stroke-dasharray="none" stroke-linecap="inherit" stroke-linejoin="inherit" stroke-width="30" transform="matrix(0.04,0.0,0.0,-0.04,244.72,176.0)"/>
  <path d="M601,604 c0,71,0,200,-202,200 l-201,0 c-203,0,-198,-130,-198,-200 c0,-202,129,-200,200,-200 l201,0 c71,0,200,5,200,-198 c0,-70,3,-202,-200,-202 l-201,0 c-71,0,-200,-2,-200,200 " fill="none" stroke="rgba(255,0,0,1.0)" stroke-dasharray="none" stroke-linecap="inherit" stroke-linejoin="inherit" stroke-width="30" transform="matrix(0.04,0.0,0.0,-0.04,260.76,176.0)"/>
  <path d="M404,-1 c202,0,197,129,197,200 l0,400 c0,71,0,200,-202,200 l-201,0 c-203,0,-198,-130,-198,-200 l0,-400 c0,-71,0,-200,202,-200 Z M404,-1 " fill="none" stroke="rgba(255,0,0,1.0)" stroke-dasharray="none" stroke-linecap="inherit" stroke-linejoin="inherit" stroke-width="30" transform="matrix(0.04,0.0,0.0,-0.04,294.08,176.0)"/>
  <path d="M0,800 l0,-600 c0,-202,129,-200,200,-200 l400,0 " fill="none" stroke="rgba(255,0,0,1.0)" stroke-dasharray="none" stroke-linecap="inherit" stroke-linejoin="inherit" stroke-width="30" transform="matrix(0.04,0.0,0.0,-0.04,327.4,176.0)"/>
  <path d="M598,799 l0,-600 c0,-71,5,-200,-198,-200 l-199,0 c-202,0,-202,129,-202,200 l0,600 " fill="none" stroke="rgba(255,0,0,1.0)" stroke-dasharray="none" stroke-linecap="inherit" stroke-linejoin="inherit" stroke-width="30" transform="matrix(0.04,0.0,0.0,-0.04,360.72,176.0)"/>
  <path d="M600,601 c0,71,0,200,-202,200 l-200,0 c-203,0,-198,-126,-198,-196 l0,-404 c202,0,200,-129,200,-200 l200,0 c71,0,200,-2,200,200 " fill="none" stroke="rgba(255,0,0,1.0)" stroke-dasharray="none" stroke-linecap="inherit" stroke-linejoin="inherit" stroke-width="30" transform="matrix(0.04,0.0,0.0,-0.04,394.04,176.0)"/>
  <path d="M600,346 l-400,0 c-202,0,-190,-127,-193,-196 l-7,-154 l0,604 c-1,69,-5,196,198,196 l203,0 c202,0,200,-130,199,-200 c0,-150,0,-600,0,-600 M0,928 c0,71,-2,200,200,200 l100,0 l0,-200 l100,0 c202,0,200,128,200,200 " fill="none" stroke="rgba(255,0,0,1.0)" stroke-dasharray="none" stroke-linecap="inherit" stroke-linejoin="inherit" stroke-width="30" transform="matrix(0.04,0.0,0.0,-0.04,427.36,176.0)"/>
  <path d="M404,-1 c202,0,197,129,197,200 l0,400 c0,71,0,200,-202,200 l-201,0 c-203,0,-198,-130,-198,-200 l0,-400 c0,-71,0,-200,202,-200 Z M404,-1 " fill="none" stroke="rgba(255,0,0,1.0)" stroke-dasharray="none" stroke-linecap="inherit" stroke-linejoin="inherit" stroke-width="30" transform="matrix(0.04,0.0,0.0,-0.04,460.68,176.0)"/>
  <path d="" fill="none" stroke="rgba(255,0,0,1.0)" stroke-dasharray="none" stroke-linecap="inherit" stroke-linejoin="inherit" stroke-width="30" transform="matrix(0.04,0.0,0.0,-0.04,494.0,176.0)"/>
  <path d="M604,602 c0,203,-132,198,-202,198 l-199,0 c-203,0,-198,-132,-198,-202 c0,-171,92,-193,164,-196 c13,0,225,-2,236,-2 c-11,0,-224,-2,-237,-3 c-71,-4,-162,-28,-162,-199 c0,-203,133,-198,202,-198 l197,0 M605,196 c0,-70,5,-196,-198,-196 " fill="none" stroke="rgba(255,0,0,1.0)" stroke-dasharray="none" stroke-linecap="inherit" stroke-linejoin="inherit" stroke-width="30" transform="matrix(0.04,0.0,0.0,-0.04,510.04,176.0)"/>
  <path d="" fill="none" stroke="rgba(255,0,0,1.0)" stroke-dasharray="none" stroke-linecap="inherit" stroke-linejoin="inherit" stroke-width="30" transform="matrix(0.04,0.0,0.0,-0.04,543.36,176.0)"/>
  <path d="M404,-1 c202,0,197,129,197,200 l0,400 c0,71,0,200,-202,200 l-201,0 c-203,0,-198,-130,-198,-200 l0,-400 c0,-71,0,-200,202,-200 Z M404,-1 " fill="none" stroke="rgba(255,0,0,1.0)" stroke-dasharray="none" stroke-linecap="inherit" stroke-linejoin="inherit" stroke-width="30" transform="matrix(0.04,0.0,0.0,-0.04,559.4,176.0)"/>
  <path d="M400,404 c71,0,200,0,200,202 c0,71,0,198,-202,198 l-200,0 c-203,0,-198,-126,-198,-196 l0,-406 c0,-203,126,-198,196,-198 l200,0 c71,0,204,-2,204,200 c0,71,2,200,-200,200 l-400,0 " fill="none" stroke="rgba(255,0,0,1.0)" stroke-dasharray="none" stroke-linecap="inherit" stroke-linejoin="inherit" stroke-width="30" transform="matrix(0.04,0.0,0.0,-0.04,592.72,176.0)"/>
  <path d="M601,604 c0,71,0,200,-202,200 l-201,0 c-203,0,-198,-130,-198,-200 c0,-202,129,-200,200,-200 l201,0 c71,0,200,5,200,-198 c0,-70,3,-202,-200,-202 l-201,0 c-71,0,-200,-2,-200,200 " fill="none" stroke="rgba(255,0,0,1.0)" stroke-dasharray="none" stroke-linecap="inherit" stroke-linejoin="inherit" stroke-width="30" transform="matrix(0.04,0.0,0.0,-0.04,626.04,176.0)"/>
  <path d="M302,0 l0,600 c0,70,0,193,202,193 l98,7 l-600,0 " fill="none" stroke="rgba(255,0,0,1.0)" stroke-dasharray="none" stroke-linecap="inherit" stroke-linejoin="inherit" stroke-width="30" transform="matrix(0.04,0.0,0.0,-0.04,659.36,176.0)"/>
  <path d="M600,346 l-400,0 c-202,0,-190,-127,-193,-196 l-7,-154 l0,604 c-1,69,-5,196,198,196 l203,0 c202,0,200,-130,199,-200 c0,-150,0,-600,0,-600 M300,928 l300,200 " fill="none" stroke="rgba(255,0,0,1.0)" stroke-dasharray="none" stroke-linecap="inherit" stroke-linejoin="inherit" stroke-width="30" transform="matrix(0.04,0.0,0.0,-0.04,692.68,176.0)"/>
  <path d="M600,598 c0,71,0,200,-202,200 l-200,0 c-203,0,-198,-126,-198,-196 l0,-406 c0,-203,130,-198,200,-198 l200,0 c71,0,200,-2,200,200 " fill="none" stroke="rgba(255,0,0,1.0)" stroke-dasharray="none" stroke-linecap="inherit" stroke-linejoin="inherit" stroke-width="30" transform="matrix(0.04,0.0,0.0,-0.04,726.0,176.0)"/>
  <path d="M598,799 l0,-600 c0,-71,5,-200,-198,-200 l-199,0 c-202,0,-202,129,-202,200 l0,600 " fill="none" stroke="rgba(255,0,0,1.0)" stroke-dasharray="none" stroke-linecap="inherit" stroke-linejoin="inherit" stroke-width="30" transform="matrix(0.04,0.0,0.0,-0.04,759.32,176.0)"/>
  <path d="M0,800 l0,-600 c0,-202,129,-200,200,-200 l400,0 " fill="none" stroke="rgba(255,0,0,1.0)" stroke-dasharray="none" stroke-linecap="inherit" stroke-linejoin="inherit" stroke-width="30" transform="matrix(0.04,0.0,0.0,-0.04,792.64,176.0)"/>
  <path d="M404,-1 c202,0,197,129,197,200 l0,400 c0,71,0,200,-202,200 l-201,0 c-203,0,-198,-130,-198,-200 l0,-400 c0,-71,0,-200,202,-200 Z M404,-1 " fill="none" stroke="rgba(255,0,0,1.0)" stroke-dasharray="none" stroke-linecap="inherit" stroke-linejoin="inherit" stroke-width="30" transform="matrix(0.04,0.0,0.0,-0.04,825.96,176.0)"/>
</svg>