<?xml version="1.0" encoding="utf-8"?>
<svg height="576" version="1.1" width="1024" xmlns="http://www.w3.org/2000/svg" xmlns:xlink="http://www.w3.org/1999/xlink">
  <path d="M302,0 l0,600 c0,70,0,193,202,193 l98,7 l-600,0 " fill="none" stroke="rgba(255,0,0,1.0)" stroke-dasharray="none" stroke-linecap="inherit" stroke-linejoin="inherit" stroke-width="30" transform="matrix(0.04,0.0,0.0,-0.04,30,116)"/>
  <path d="M598,799 l0,-600 c0,-71,5,-200,-198,-200 l-199,0 c-202,0,-202,129,-202,200 l0,600 " fill="none" stroke="rgba(255,0,0,1.0)" stroke-dasharray="none" stroke-linecap="inherit" stroke-linejoin="inherit" stroke-width="30" transform="matrix(0.04,0.0,0.0,-0.04,63.32,116.0)"/>
  <path d="M601,599 c0,71,0,200,-202,200 c-66,0,-398,0,-398,0 l0,-800 l400,0 c71,0,200,-2,200,200 Z M601,599 " fill="none" stroke="rgba(255,0,0,1.0)" stroke-dasharray="none" stroke-linecap="inherit" stroke-linejoin="inherit" stroke-width="30" transform="matrix(0.04,0.0,0.0,-0.04,96.64,116.0)"/>
  <path d="M404,-1 c202,0,197,129,197,200 l0,400 c0,71,0,200,-202,200 l-201,0 c-203,0,-198,-130,-198,-200 l0,-400 c0,-71,0,-200,202,-200 Z M404,-1 " fill="none" stroke="rgba(255,0,0,1.0)" stroke-dasharray="none" stroke-linecap="inherit" stroke-linejoin="inherit" stroke-width="30" transform="matrix(0.04,0.0,0.0,-0.04,129.96,116.0)"/>
  <path d="" fill="none" stroke="rgba(255,0,0,1.0)" stroke-dasharray="none" stroke-linecap="inherit" stroke-linejoin="inherit" stroke-width="30" transform="matrix(0.04,0.0,0.0,-0.04,163.28,116.0)"/>
  <path d="M0,99 c0,71,-2,208,200,208 l201,0 c203,0,200,129,200,200 l0,96 c0,71,0,200,-202,200 l-201,0 c-203,0,-198,-130,-198,-200 l0,-600 " fill="none" stroke="rgba(255,0,0,1.0)" stroke-dasharray="none" stroke-linecap="inherit" stroke-linejoin="inherit" stroke-width="30" transform="matrix(0.04,0.0,0.0,-0.04,179.32,116.0)"/>
  <path d="M404,-1 c202,0,197,129,197,200 l0,400 c0,71,0,200,-202,200 l-201,0 c-203,0,-198,-130,-198,-200 l0,-400 c0,-71,0,-200,202,-200 Z M404,-1 " fill="none" stroke="rgba(255,0,0,1.0)" stroke-dasharray="none" stroke-linecap="inherit" stroke-linejoin="inherit" stroke-width="30" transform="matrix(0.04,0.0,0.0,-0.04,212.64,116.0)"/>
  <path d="M601,599 c0,71,0,200,-202,200 c-66,0,-398,0,-398,0 l0,-800 l400,0 c71,0,200,-2,200,200 Z M601,599 " fill="none" stroke="rgba(255,0,0,1.0)" stroke-dasharray="none" stroke-linecap="inherit" stroke-linejoin="inherit" stroke-width="30" transform="matrix(0.04,0.0,0.0,-0.04,245.96,116.0)"/>
  <path d="M604,602 c0,203,-132,198,-202,198 l-199,0 c-203,0,-198,-132,-198,-202 c0,-171,92,-193,164,-196 c13,0,225,-2,236,-2 c-11,0,-224,-2,-237,-3 c-71,-4,-162,-28,-162,-199 c0,-203,133,-198,202,-198 l197,0 M605,196 c0,-70,5,-196,-198,-196 " fill="none" stroke="rgba(255,0,0,1.0)" stroke-dasharray="none" stroke-linecap="inherit" stroke-linejoin="inherit" stroke-width="30" transform="matrix(0.04,0.0,0.0,-0.04,279.28,116.0)"/>
  <path d="" fill="none" stroke="rgba(255,0,0,1.0)" stroke-dasharray="none" stroke-linecap="inherit" stroke-linejoin="inherit" stroke-width="30" transform="matrix(0.04,0.0,0.0,-0.04,312.6,116.0)"/>
  <path d="" fill="none" stroke="rgba(255,0,0,1.0)" stroke-dasharray="none" stroke-linecap="inherit" stroke-linejoin="inherit" stroke-width="30" transform="matrix(0.04,0.0,0.0,-0.04,30.0,176.0)"/>
  <path d="" fill="none" stroke="rgba(255,0,0,1.0)" stroke-dasharray="none" stroke-linecap="inherit" stroke-linejoin="inherit" stroke-width="30" transform="matrix(0.04,0.0,0.0,-0.04,46.04,176.0)"/>
  <path d="" fill="none" stroke="rgba(255,0,0,1.0)" stroke-dasharray="none" stroke-linecap="inherit" stroke-linejoin="inherit" stroke-width="30" transform="matrix(0.04,0.0,0.0,-0.04,62.08,176.0)"/>
  <path d="" fill="none" stroke="rgba(255,0,0,1.0)" stroke-dasharray="none" stroke-linecap="inherit" stroke-linejoin="inherit" stroke-width="30" transform="matrix(0.04,0.0,0.0,-0.04,78.12,176.0)"/>
  <path d="M601,604 c0,71,0,200,-202,200 l-201,0 c-203,0,-198,-130,-198,-200 c0,-202,129,-200,200,-200 l201,0 c71,0,200,5,200,-198 c0,-70,3,-202,-200,-202 l-201,0 c-71,0,-200,-2,-200,200 " fill="none" stroke="rgba(255,0,0,1.0)" stroke-dasharray="none" stroke-linecap="inherit" stroke-linejoin="inherit" stroke-width="30" transform="matrix(0.04,0.0,0.0,-0.04,94.16,176.0)"/>
  <path d="M604,602 c0,203,-132,198,-202,198 l-199,0 c-203,0,-198,-132,-198,-202 c0,-171,92,-193,164,-196 c13,0,225,-2,236,-2 c-11,0,-224,-2,-237,-3 c-71,-4,-162,-28,-162,-199 c0,-203,133,-198,202,-198 l197,0 M605,196 c0,-70,5,-196,-198,-196 " fill="none" stroke="rgba(255,0,0,1.0)" stroke-dasharray="none" stroke-linecap="inherit" stroke-linejoin="inherit" stroke-width="30" transform="matrix(0.04,0.0,0.0,-0.04,127.48,176.0)"/>
  <path d="M601,-4 l0,102 c0,203,-129,198,-200,198 l-201,0 l-200,0 l200,0 M401,296 c203,0,200,129,200,200 l0,100 c0,71,0,200,-202,200 l-201,0 c-203,0,-198,-130,-198,-200 l0,-600 " fill="none" stroke="rgba(255,0,0,1.0)" stroke-dasharray="none" stroke-linecap="inherit" stroke-linejoin="inherit" stroke-width="30" transform="matrix(0.04,0.0,0.0,-0.04,160.8,176.0)"/>
  <path d="" fill="none" stroke="rgba(255,0,0,1.0)" stroke-dasharray="none" stroke-linecap="inherit" stroke-linejoin="inherit" stroke-width="30" transform="matrix(0.04,0.0,0.0,-0.04,194.12,176.0)"/>
  <path d="M600,606 c0,203,-132,198,-202,198 l-199,0 c-203,0,-198,-132,-198,-202 c0,-203,129,-198,200,-198 c-71,0,-199,0,-199,-202 l-1,-198 M201,404 l200,0 " fill="none" stroke="rgba(255,0,0,1.0)" stroke-dasharray="none" stroke-linecap="inherit" stroke-linejoin="inherit" stroke-width="30" transform="matrix(0.04,0.0,0.0,-0.04,210.16,176.0)"/>
  <path d="M604,602 c0,203,-132,198,-202,198 l-199,0 c-203,0,-198,-132,-198,-202 c0,-171,92,-193,164,-196 c13,0,225,-2,236,-2 c-11,0,-224,-2,-237,-3 c-71,-4,-162,-28,-162,-199 c0,-203,133,-198,202,-198 l197,0 M605,196 c0,-70,5,-196,-198,-196 " fill="none" stroke="rgba(255,0,0,1.0)" stroke-dasharray="none" stroke-linecap="inherit" stroke-linejoin="inherit" stroke-width="30" transform="matrix(0.04,0.0,0.0,-0.04,243.48,176.0)"/>
  <path d="M-4,-1 l600,0 l-100,8 c-71,6,-200,-12,-200,191 l0,402 c0,203,-130,187,-200,192 l-100,7 l600,0 " fill="none" stroke="rgba(255,0,0,1.0)" stroke-dasharray="none" stroke-linecap="inherit" stroke-linejoin="inherit" stroke-width="30" transform="matrix(0.04,0.0,0.0,-0.04,276.8,176.0)"/>
  <path d="M302,0 l0,600 c0,70,0,193,202,193 l98,7 l-600,0 " fill="none" stroke="rgba(255,0,0,1.0)" stroke-dasharray="none" stroke-linecap="inherit" stroke-linejoin="inherit" stroke-width="30" transform="matrix(0.04,0.0,0.0,-0.04,310.12,176.0)"/>
  <path d="M404,-1 c202,0,197,129,197,200 l0,400 c0,71,0,200,-202,200 l-201,0 c-203,0,-198,-130,-198,-200 l0,-400 c0,-71,0,-200,202,-200 Z M404,-1 " fill="none" stroke="rgba(255,0,0,1.0)" stroke-dasharray="none" stroke-linecap="inherit" stroke-linejoin="inherit" stroke-width="30" transform="matrix(0.04,0.0,0.0,-0.04,343.44,176.0)"/>
</svg>