<?xml version="1.0" encoding="utf-8"?>
<!-- Generator: Adobe Illustrator 16.0.0, SVG Export Plug-In . SVG Version: 6.00 Build 0)  -->
<!DOCTYPE svg PUBLIC "-//W3C//DTD SVG 1.1//EN" "http://www.w3.org/Graphics/SVG/1.1/DTD/svg11.dtd">
<svg version="1.1" id="Layer_1" xmlns="http://www.w3.org/2000/svg" xmlns:xlink="http://www.w3.org/1999/xlink" x="0px" y="0px"
	 width="800px" height="800px" viewBox="0 0 800 800" enable-background="new 0 0 800 800" xml:space="preserve">
<g>
	<path fill="none" stroke="#000000" stroke-width="5" stroke-linecap="round" stroke-linejoin="round" stroke-miterlimit="10" d="
		M420.698,115.159c0,0,0-43.611,0-58.149c0-6.894,0-19.383-19.616-19.383c-19.615,0-19.233,12.26-19.15,19.005v58.526l0.006-14.915
		c-0.082-6.744-0.233-19.005,19.383-19.005h19.378"/>
	<path fill="none" stroke="#000000" stroke-width="5" stroke-linecap="round" stroke-linejoin="round" stroke-miterlimit="10" d="
		M595.974,634.755c0,0,0-43.612,0-58.148c0-6.896,0-19.384-19.616-19.384c-19.615,0-19.233,12.261-19.15,19.005v58.527l0.006-14.915
		c-0.082-6.745-0.231-19.005,19.383-19.005h19.378"/>
	<path fill="none" stroke="#000000" stroke-width="5" stroke-linecap="round" stroke-linejoin="round" stroke-miterlimit="10" d="
		M420.698,246.48c0,0,0-43.611,0-58.148c0-6.895,0-19.384-19.616-19.384c-19.615,0-19.233,12.261-19.15,19.005v58.527l0.006-14.915
		c-0.082-6.745-0.233-19.005,19.383-19.005h19.378"/>
	<path fill="none" stroke="#000000" stroke-width="5" stroke-linecap="round" stroke-linejoin="round" stroke-miterlimit="10" d="
		M362.161,505.329c0,0,0-43.611,0-58.148c0-6.895,0-19.383-19.615-19.383s-19.234,12.26-19.15,19.005v58.526l0.006-14.915
		c-0.082-6.744-0.232-19.005,19.383-19.005h19.377"/>
	<path fill="none" stroke="#000000" stroke-width="5" stroke-linecap="round" stroke-linejoin="round" stroke-miterlimit="10" d="
		M712.825,246.48c0,0,0-43.611,0-58.148c0-6.895,0-19.384-19.615-19.384s-19.232,12.261-19.149,19.005v58.527l0.006-14.915
		c-0.084-6.745-0.233-19.005,19.382-19.005h19.377"/>
	<path fill="none" stroke="#000000" stroke-width="5" stroke-linecap="round" stroke-linejoin="round" stroke-miterlimit="10" d="
		M30.657,115.14V95.873c0-19.615,12.489-19.616,19.383-19.616c-6.83,0-19.382,0.465-19.382-19.151c0-6.83-0.466-19.382,19.15-19.382
		c19.615,0,19.615,12.488,19.615,19.382"/>
	<path fill="none" stroke="#000000" stroke-width="5" stroke-linecap="round" stroke-linejoin="round" stroke-miterlimit="10" d="
		M128.042,96.193c0,6.83,0.465,19.005-19.15,19.005c-6.741,0-19.615,0.449-19.615-19.167s12.398-19.6,19.292-19.6
		c-6.829,0-19.382,0.465-19.382-19.151c0-6.83-0.464-19.614,19.151-19.614c6.83,0,19.616-0.464,19.616,19.151"/>
	<path fill="none" stroke="#000000" stroke-width="5" stroke-linecap="round" stroke-linejoin="round" stroke-miterlimit="10" d="
		M128.042,356.9c0,6.83,0.465,19.004-19.15,19.005c-6.741,0-19.615,0.449-19.615-19.166c0-19.616,12.398-19.601,19.292-19.601
		c-6.829,0-19.382,0.465-19.382-19.151c0-6.83-0.464-19.613,19.151-19.613c6.83,0,19.616-0.465,19.616,19.15"/>
	<path fill="none" stroke="#000000" stroke-width="5" stroke-linecap="round" stroke-linejoin="round" stroke-miterlimit="10" d="
		M245.143,227.474c0,6.83,0.465,19.006-19.15,19.006c-6.742,0-19.614,0.449-19.614-19.166c0-19.616,12.397-19.602,19.292-19.602
		c-6.83,0-19.382,0.466-19.382-19.15c0-6.83-0.465-19.614,19.151-19.614c6.83,0,19.614-0.464,19.614,19.151"/>
	<path fill="none" stroke="#000000" stroke-width="5" stroke-linecap="round" stroke-linejoin="round" stroke-miterlimit="10" d="
		M69.467,615.749c0,6.831,0.465,19.006-19.15,19.006c-6.741,0-19.615,0.449-19.615-19.167c0-19.615,12.398-19.6,19.293-19.6
		c-6.83,0-19.382,0.465-19.382-19.151c0-6.83-0.464-19.614,19.151-19.614c6.83,0,19.615-0.464,19.615,19.151"/>
	<path fill="none" stroke="#000000" stroke-width="5" stroke-linecap="round" stroke-linejoin="round" stroke-miterlimit="10" d="
		M186.614,615.749c0,6.831,0.465,19.006-19.15,19.006c-6.741,0-19.614,0.449-19.614-19.167c0-19.615,12.397-19.6,19.292-19.6
		c-6.83,0-19.382,0.465-19.382-19.151c0-6.83-0.464-19.614,19.151-19.614c6.83,0,19.615-0.464,19.615,19.151"/>
	<path fill="none" stroke="#000000" stroke-width="5" stroke-linecap="round" stroke-linejoin="round" stroke-miterlimit="10" d="
		M479.166,486.324c0,6.83,0.465,19.005-19.15,19.005c-6.742,0-19.615,0.45-19.615-19.166c0-19.615,12.398-19.601,19.293-19.601
		c-6.83,0-19.383,0.465-19.383-19.15c0-6.83-0.465-19.614,19.152-19.614c6.83,0,19.615-0.464,19.615,19.151"/>
	<path fill="none" stroke="#000000" stroke-width="5" stroke-linecap="round" stroke-linejoin="round" stroke-miterlimit="10" d="
		M147.805,95.815c0,19.615,12.553,19.382,19.383,19.382c19.615,0,19.383-12.784,19.383-19.614c0-19.615-12.553-19.15-19.383-19.15
		s-19.382,0.231-19.382-19.384c0-6.83-0.466-19.382,19.149-19.382c19.616,0,19.616,12.488,19.616,19.382"/>
	<path fill="none" stroke="#000000" stroke-width="5" stroke-linecap="round" stroke-linejoin="round" stroke-miterlimit="10" d="
		M225.715,117.054V58.905c0-6.83-0.232-19.383,19.383-19.383l0,0h-38.765"/>
	<path fill="none" stroke="#000000" stroke-width="5" stroke-linecap="round" stroke-linejoin="round" stroke-miterlimit="10" d="
		M167.188,246.48l0.001-58.148c0-6.83-0.233-19.384,19.382-19.384l0,0h-38.766"/>
	<path fill="none" stroke="#000000" stroke-width="5" stroke-linecap="round" stroke-linejoin="round" stroke-miterlimit="10" d="
		M225.716,634.755v-58.148c0-6.831-0.232-19.384,19.383-19.384l0,0h-38.766"/>
	<path fill="none" stroke="#000000" stroke-width="5" stroke-linecap="round" stroke-linejoin="round" stroke-miterlimit="10" d="
		M303.626,39.522l-38.766,0.117c6.83,0,19.383-0.465,19.383,19.15v38.998c0,19.615,12.553,19.267,19.383,19.267H264.86"/>
	<path fill="none" stroke="#000000" stroke-width="5" stroke-linecap="round" stroke-linejoin="round" stroke-miterlimit="10" d="
		M69.423,168.947l-38.766,0.117c6.83,0,19.383-0.465,19.383,19.15v38.998c0,19.615,12.553,19.268,19.383,19.268H30.657"/>
	<path fill="none" stroke="#000000" stroke-width="5" stroke-linecap="round" stroke-linejoin="round" stroke-miterlimit="10" d="
		M127.997,427.798l-38.766,0.117c6.83,0,19.383-0.466,19.383,19.149v38.997c0,19.616,12.553,19.268,19.383,19.268H89.231"/>
	<path fill="none" stroke="#000000" stroke-width="5" stroke-linecap="round" stroke-linejoin="round" stroke-miterlimit="10" d="
		M537.543,168.947l-38.766,0.117c6.83,0,19.383-0.465,19.383,19.15v38.998c0,19.615,12.552,19.268,19.383,19.268h-38.766"/>
	<path fill="none" stroke="#000000" stroke-width="5" stroke-linecap="round" stroke-linejoin="round" stroke-miterlimit="10" d="
		M479.122,557.223l-38.768,0.117c6.831,0,19.384-0.466,19.384,19.15v38.997c0,19.616,12.553,19.268,19.384,19.268h-38.768"/>
	<path fill="none" stroke="#000000" stroke-width="5" stroke-linecap="round" stroke-linejoin="round" stroke-miterlimit="10" d="
		M323.388,39.522v58.149c6.895,0,19.384,0,19.384,19.383c19.615,0,19.383-12.489,19.383-19.383V39.522"/>
	<path fill="none" stroke="#000000" stroke-width="5" stroke-linecap="round" stroke-linejoin="round" stroke-miterlimit="10" d="
		M440.355,39.522v58.149c0,19.615,12.553,19.383,19.384,19.383h19.382"/>
	<path fill="none" stroke="#000000" stroke-width="5" stroke-linecap="round" stroke-linejoin="round" stroke-miterlimit="10" d="
		M30.657,427.798v58.148c0,19.615,12.553,19.383,19.383,19.383h19.383"/>
	<path fill="none" stroke="#000000" stroke-width="5" stroke-linecap="round" stroke-linejoin="round" stroke-miterlimit="10" d="
		M732.481,168.948v58.149c0,19.615,12.554,19.383,19.383,19.383h19.383"/>
	<path fill="none" stroke="#000000" stroke-width="5" stroke-linecap="round" stroke-linejoin="round" stroke-miterlimit="10" d="
		M89.231,557.223v58.148c0,19.616,12.553,19.384,19.383,19.384h19.383"/>
	<path fill="none" stroke="#000000" stroke-width="5" stroke-linecap="round" stroke-linejoin="round" stroke-miterlimit="10" d="
		M127.997,168.948v77.532c-6.83,0-19.383,0.232-19.383-19.383V188.33c0-19.615-12.553-19.381-19.383-19.381v77.532"/>
	<path fill="none" stroke="#000000" stroke-width="5" stroke-linecap="round" stroke-linejoin="round" stroke-miterlimit="10" d="
		M186.57,427.798v77.531c-6.83,0-19.384,0.233-19.384-19.383V447.18c0-19.615-12.552-19.382-19.382-19.382v77.531"/>
	<path fill="none" stroke="#000000" stroke-width="5" stroke-linecap="round" stroke-linejoin="round" stroke-miterlimit="10" d="
		M362.154,168.948v77.532c-6.83,0-19.383,0.232-19.383-19.383V188.33c0-19.615-12.553-19.381-19.384-19.381v77.532"/>
	<path fill="none" stroke="#000000" stroke-width="5" stroke-linecap="round" stroke-linejoin="round" stroke-miterlimit="10" d="
		M420.689,557.224v77.53c-6.83,0-19.383,0.233-19.383-19.382v-38.767c0-19.616-12.553-19.382-19.383-19.382v77.53"/>
	<path fill="none" stroke="#000000" stroke-width="5" stroke-linecap="round" stroke-linejoin="round" stroke-miterlimit="10" d="
		M654.389,168.948v77.532c-6.83,0-19.383,0.232-19.383-19.383V188.33c0-19.615-12.553-19.381-19.384-19.381v77.532"/>
	<path fill="none" stroke="#000000" stroke-width="5" stroke-linecap="round" stroke-linejoin="round" stroke-miterlimit="10" d="
		M264.86,246.48v-58.148c0-6.83-0.467-19.384,19.149-19.384s19.615,12.489,19.615,19.384c0,6.83,0.232,19.383-19.383,19.383H264.86
		h19.382c6.83,0,19.384-0.465,19.384,19.15v19.615"/>
	<path fill="none" stroke="#000000" stroke-width="5" stroke-linecap="round" stroke-linejoin="round" stroke-miterlimit="10" d="
		M264.86,634.755v-58.148c0-6.831-0.465-19.383,19.15-19.383s19.615,12.488,19.615,19.383c0,6.829,0.232,19.383-19.383,19.383
		H264.86h19.383c6.83,0,19.383-0.465,19.383,19.151v19.614"/>
	<path fill="none" stroke="#000000" stroke-width="5" stroke-linecap="round" stroke-linejoin="round" stroke-miterlimit="10" d="
		M479.121,188.331c0-6.894,0-19.383-19.613-19.383c-19.617,0-19.152,12.175-19.152,19.005v39.361
		c0,19.615,12.643,19.166,19.383,19.166c6.895,0,19.383,0.232,19.383-19.383"/>
	<path fill="none" stroke="#000000" stroke-width="5" stroke-linecap="round" stroke-linejoin="round" stroke-miterlimit="10" d="
		M537.543,576.605c0-6.895,0-19.383-19.615-19.383s-19.15,12.175-19.15,19.005v39.361c0,19.615,12.643,19.165,19.383,19.165
		c6.895,0,19.383,0.233,19.383-19.383"/>
	<path fill="none" stroke="#000000" stroke-width="5" stroke-linecap="round" stroke-linejoin="round" stroke-miterlimit="10" d="
		M480.121,227.097"/>
	<path fill="none" stroke="#000000" stroke-width="5" stroke-linecap="round" stroke-linejoin="round" stroke-miterlimit="10" d="
		M557.199,227.097c0,6.895,0,19.383,19.615,19.383c19.616,0,19.15-12.553,19.15-19.383l0.001-38.766c0-6.895,0-19.384-19.615-19.384
		c-19.616,0-19.15,12.554-19.15,19.384L557.199,227.097z"/>
	<path fill="none" stroke="#000000" stroke-width="5" stroke-linecap="round" stroke-linejoin="round" stroke-miterlimit="10" d="
		M69.423,317.756c0-6.895,0-19.383-19.615-19.383c-6.326,0-19.15,0-19.15,0v77.53H50.04c6.894,0,19.383,0.234,19.383-19.382V317.756
		z"/>
	<path fill="none" stroke="#000000" stroke-width="5" stroke-linecap="round" stroke-linejoin="round" stroke-miterlimit="10" d="
		M245.099,447.181c0-6.895,0-19.383-19.615-19.383c-19.616,0-19.15,12.553-19.15,19.383l-0.001,38.766
		c0,6.895,0,19.383,19.616,19.383c19.615,0,19.149-12.553,19.149-19.383l0.001-19.383c-19.615,0-19.383-12.488-19.383-19.383"/>
	<path fill="none" stroke="#000000" stroke-width="5" stroke-linecap="round" stroke-linejoin="round" stroke-miterlimit="10" d="
		M420.691,447.181c0-6.895,0-19.383-19.617-19.383c-19.615,0-19.15,12.553-19.15,19.383v38.766c0,6.895,0,19.383,19.615,19.383
		s19.15-12.553,19.15-19.383l0.002-19.383c-19.617,0-19.383-12.488-19.383-19.383"/>
	<path fill="none" stroke="#000000" stroke-width="5" stroke-linecap="round" stroke-linejoin="round" stroke-miterlimit="10" d="
		M264.861,427.798l-0.002,58.148c0,6.895,0,19.383,19.615,19.383c19.617,0,19.15-12.553,19.15-19.383l0.002-58.148"/>
	<path fill="none" stroke="#000000" stroke-width="5" stroke-linecap="round" stroke-linejoin="round" stroke-miterlimit="10" d="
		M537.543,505.329v-77.531c-6.83,0-19.383-0.233-19.383,19.382v19.384V447.18c0-19.615-12.553-19.382-19.383-19.382v77.532"/>
	<g>
		
			<polyline fill="none" stroke="#000000" stroke-width="5" stroke-linecap="round" stroke-linejoin="round" stroke-miterlimit="10" points="
			323.388,544.86 342.771,525.477 362.154,544.86 		"/>
		<path fill="none" stroke="#000000" stroke-width="5" stroke-linecap="round" stroke-linejoin="round" stroke-miterlimit="10" d="
			M323.388,615.371c0,6.896,0,19.384,19.614,19.384c19.616,0,19.151-12.553,19.151-19.384l0.001-38.765
			c0-6.896,0-19.384-19.615-19.384c-19.616,0-19.151,12.553-19.151,19.384V615.371z"/>
	</g>
	<path fill="none" stroke="#000000" stroke-width="5" stroke-linecap="round" stroke-linejoin="round" stroke-miterlimit="10" d="
		M30.644,706.045c0-19.628,12.497-19.396,19.396-19.396l0,0c19.628,0,19.396,12.497,19.396,19.396l-38.792,38.792
		c0,6.897-0.232,19.395,19.396,19.395h19.396"/>
	<path fill="none" stroke="#000000" stroke-width="5" stroke-linecap="round" stroke-linejoin="round" stroke-miterlimit="10" d="
		M186.583,764.231h-38.792c6.898,0,19.396,0.232,19.396-19.395v-58.188c0,19.628-12.497,19.396-19.396,19.396"/>
	<path fill="none" stroke="#000000" stroke-width="5" stroke-linecap="round" stroke-linejoin="round" stroke-miterlimit="10" d="
		M245.112,686.649h-19.395c-19.629,0-19.398,12.497-19.398,19.396v19.396h19.398c19.629,0,19.395,12.496,19.395,19.396
		c0,19.627-12.496,19.395-19.395,19.395c-19.629,0-19.398-12.497-19.398-19.395"/>
	<path fill="none" stroke="#000000" stroke-width="5" stroke-linecap="round" stroke-linejoin="round" stroke-miterlimit="10" d="
		M128.01,706.045v38.792c0,6.834,0.465,19.395-19.163,19.395c-19.629,0-19.629-12.497-19.629-19.395L128.01,706.045
		c0.001-6.898,0.001-19.396-19.628-19.396c-19.628,0-19.163,12.562-19.163,19.396v38.792"/>
</g>
</svg>
